<svg width="24" height="24" viewBox="0 0 24 24" fill="none" xmlns="http://www.w3.org/2000/svg">
<path d="M19.7143 8.57146C19.7143 12.84 12 23.1429 12 23.1429C12 23.1429 4.28571 12.84 4.28571 8.57146C4.28571 6.52551 5.09846 4.56335 6.54517 3.11664C7.99188 1.66993 9.95404 0.857178 12 0.857178C14.0459 0.857178 16.0081 1.66993 17.4548 3.11664C18.9015 4.56335 19.7143 6.52551 19.7143 8.57146Z" stroke="#212121" stroke-width="1.71429" stroke-linecap="round" stroke-linejoin="round"/>
<path d="M12 11.1429C13.4202 11.1429 14.5714 9.99159 14.5714 8.57143C14.5714 7.15127 13.4202 6 12 6C10.5799 6 9.42859 7.15127 9.42859 8.57143C9.42859 9.99159 10.5799 11.1429 12 11.1429Z" stroke="#212121" stroke-width="1.71429" stroke-linecap="round" stroke-linejoin="round"/>
</svg>
