<svg width="23" height="23" viewBox="0 0 23 23" fill="none" xmlns="http://www.w3.org/2000/svg">
<g clip-path="url(#clip0_1_7393)">
<path d="M11.5 0.958252C12.1293 0.958252 12.7523 1.08219 13.3337 1.323C13.915 1.5638 14.4433 1.91675 14.8882 2.3617C15.3332 2.80665 15.6861 3.33488 15.9269 3.91623C16.1677 4.49758 16.2917 5.12067 16.2917 5.74992V7.66658H19.1667C19.4208 7.66658 19.6646 7.76755 19.8443 7.94727C20.024 8.127 20.125 8.37075 20.125 8.62492V20.1249C20.125 20.3791 20.024 20.6228 19.8443 20.8026C19.6646 20.9823 19.4208 21.0833 19.1667 21.0833H3.83333C3.57917 21.0833 3.33541 20.9823 3.15569 20.8026C2.97597 20.6228 2.875 20.3791 2.875 20.1249V8.62492C2.875 8.37075 2.97597 8.127 3.15569 7.94727C3.33541 7.76755 3.57917 7.66658 3.83333 7.66658H6.70833V5.74992C6.70833 4.47909 7.21317 3.26031 8.11178 2.3617C9.01039 1.46309 10.2292 0.958252 11.5 0.958252ZM16.2917 10.5416H14.375V11.4999C14.3753 11.7442 14.4688 11.9791 14.6365 12.1567C14.8042 12.3343 15.0333 12.4412 15.2772 12.4555C15.521 12.4699 15.7611 12.3905 15.9484 12.2337C16.1357 12.077 16.2561 11.8546 16.285 11.612L16.2917 11.4999V10.5416ZM8.625 10.5416H6.70833V11.4999C6.7086 11.7442 6.80213 11.9791 6.96981 12.1567C7.13749 12.3343 7.36666 12.4412 7.6105 12.4555C7.85434 12.4699 8.09445 12.3905 8.28176 12.2337C8.46907 12.077 8.58944 11.8546 8.61829 11.612L8.625 11.4999V10.5416ZM11.5 2.87492C10.7667 2.87488 10.061 3.15506 9.5275 3.65815C8.99395 4.16123 8.67281 4.84919 8.62979 5.58125L8.625 5.74992V7.66658H14.375V5.74992C14.375 5.01659 14.0949 4.31097 13.5918 3.77742C13.0887 3.24387 12.4007 2.92273 11.6687 2.87971L11.5 2.87492Z" fill="#B3571F"/>
</g>
<defs>
<clipPath id="clip0_1_7393">
<rect width="23" height="23" fill="white"/>
</clipPath>
</defs>
</svg>
