<svg width="24" height="25" viewBox="0 0 24 25" fill="none" xmlns="http://www.w3.org/2000/svg">
<path d="M4.69423 11.4916L12.5183 19.3157L20.3424 11.4916C21.0342 10.7999 21.4228 9.86167 21.4228 8.88339C21.4228 7.90511 21.0342 6.9669 20.3424 6.27515C19.9999 5.93263 19.5933 5.66093 19.1458 5.47556C18.6982 5.29019 18.2186 5.19478 17.7342 5.19478C16.7559 5.19478 15.8177 5.5834 15.126 6.27515L12.5183 8.88277L9.91071 6.27638C9.2172 5.59391 8.28211 5.21313 7.30912 5.21698C6.33613 5.22082 5.40408 5.60899 4.71599 6.29692C4.0279 6.98484 3.63952 7.9168 3.63544 8.88979C3.63136 9.86277 4.01193 10.798 4.69423 11.4916ZM11.6491 4.5355L12.5183 5.40471L13.3875 4.5355C13.9574 3.96058 14.6353 3.50389 15.3822 3.19165C16.129 2.8794 16.9302 2.71775 17.7398 2.71598C18.5493 2.71421 19.3512 2.87235 20.0994 3.18132C20.8477 3.49029 21.5275 3.94401 22.0999 4.51643C22.6723 5.08884 23.1261 5.76869 23.435 6.51693C23.744 7.26516 23.9021 8.06706 23.9004 8.87658C23.8986 9.6861 23.7369 10.4873 23.4247 11.2342C23.1125 11.9811 22.6558 12.6589 22.0808 13.2288L13.3888 21.9221C13.2746 22.0364 13.139 22.1271 12.9897 22.189C12.8405 22.2508 12.6805 22.2827 12.5189 22.2827C12.3574 22.2827 12.1974 22.2508 12.0481 22.189C11.8989 22.1271 11.7633 22.0364 11.6491 21.9221L2.95581 13.23C2.37308 12.662 1.90894 11.9838 1.59032 11.235C1.2717 10.4861 1.10495 9.68149 1.09974 8.86769C1.09452 8.0539 1.25095 7.24717 1.55994 6.4943C1.86894 5.74143 2.32435 5.05741 2.89976 4.48192C3.47517 3.90643 4.15913 3.45092 4.91195 3.14182C5.66478 2.83272 6.47149 2.67617 7.28528 2.68127C8.09908 2.68637 8.90376 2.85301 9.65265 3.17152C10.4015 3.49003 11.0797 3.95408 11.6479 4.53673L11.6491 4.5355Z" fill="#181725"/>
</svg>
