<svg width="24" height="24" viewBox="0 0 24 24" fill="none" xmlns="http://www.w3.org/2000/svg">
<g clip-path="url(#clip0_10_3643)">
<path d="M22.5 2.24717L16.4948 2.24719V0.752441C16.4948 0.338066 16.1591 0.00244141 15.7448 0.00244141C15.3304 0.00244141 14.9948 0.338066 14.9948 0.752441V2.24682H8.99475V0.752441C8.99475 0.338066 8.65913 0.00244141 8.24475 0.00244141C7.83038 0.00244141 7.49475 0.338066 7.49475 0.752441V2.24682H1.5C0.671625 2.24682 0 2.91844 0 3.74682V22.4968C0 23.3252 0.671625 23.9968 1.5 23.9968H22.5C23.3284 23.9968 24 23.3252 24 22.4968V3.74682C24 2.91879 23.3284 2.24717 22.5 2.24717ZM22.5 22.4968H1.5V3.74682H7.49475V4.50244C7.49475 4.91679 7.83038 5.25244 8.24475 5.25244C8.65913 5.25244 8.99475 4.91679 8.99475 4.50244V3.74719H14.9948V4.50282C14.9948 4.91719 15.3304 5.25282 15.7448 5.25282C16.1591 5.25282 16.4948 4.91719 16.4948 4.50282V3.74719H22.5V22.4968ZM17.25 11.9972H18.75C19.164 11.9972 19.5 11.6612 19.5 11.2472V9.74717C19.5 9.33317 19.164 8.99717 18.75 8.99717H17.25C16.836 8.99717 16.5 9.33317 16.5 9.74717V11.2472C16.5 11.6612 16.836 11.9972 17.25 11.9972ZM17.25 17.9968H18.75C19.164 17.9968 19.5 17.6612 19.5 17.2468V15.7468C19.5 15.3328 19.164 14.9968 18.75 14.9968H17.25C16.836 14.9968 16.5 15.3328 16.5 15.7468V17.2468C16.5 17.6615 16.836 17.9968 17.25 17.9968ZM12.75 14.9968H11.25C10.836 14.9968 10.5 15.3328 10.5 15.7468V17.2468C10.5 17.6612 10.836 17.9968 11.25 17.9968H12.75C13.164 17.9968 13.5 17.6612 13.5 17.2468V15.7468C13.5 15.3332 13.164 14.9968 12.75 14.9968ZM12.75 8.99717H11.25C10.836 8.99717 10.5 9.33317 10.5 9.74717V11.2472C10.5 11.6612 10.836 11.9972 11.25 11.9972H12.75C13.164 11.9972 13.5 11.6612 13.5 11.2472V9.74717C13.5 9.33279 13.164 8.99717 12.75 8.99717ZM6.75 8.99717H5.25C4.836 8.99717 4.5 9.33317 4.5 9.74717V11.2472C4.5 11.6612 4.836 11.9972 5.25 11.9972H6.75C7.164 11.9972 7.5 11.6612 7.5 11.2472V9.74717C7.5 9.33279 7.164 8.99717 6.75 8.99717ZM6.75 14.9968H5.25C4.836 14.9968 4.5 15.3328 4.5 15.7468V17.2468C4.5 17.6612 4.836 17.9968 5.25 17.9968H6.75C7.164 17.9968 7.5 17.6612 7.5 17.2468V15.7468C7.5 15.3332 7.164 14.9968 6.75 14.9968Z" fill="#CCCCCC"/>
</g>
<defs>
<clipPath id="clip0_10_3643">
<rect width="24" height="24" fill="white"/>
</clipPath>
</defs>
</svg>
