<svg width="30" height="30" viewBox="0 0 30 30" fill="none" xmlns="http://www.w3.org/2000/svg">
<g clip-path="url(#clip0_1_6544)">
<path d="M11.25 3.75H18.75L21.25 6.25H26.25C26.5815 6.25 26.8995 6.3817 27.1339 6.61612C27.3683 6.85054 27.5 7.16848 27.5 7.5V25C27.5 25.3315 27.3683 25.6495 27.1339 25.8839C26.8995 26.1183 26.5815 26.25 26.25 26.25H3.75C3.41848 26.25 3.10054 26.1183 2.86612 25.8839C2.6317 25.6495 2.5 25.3315 2.5 25V7.5C2.5 7.16848 2.6317 6.85054 2.86612 6.61612C3.10054 6.3817 3.41848 6.25 3.75 6.25H8.75L11.25 3.75ZM15 23.75C16.9891 23.75 18.8968 22.9598 20.3033 21.5533C21.7098 20.1468 22.5 18.2391 22.5 16.25C22.5 14.2609 21.7098 12.3532 20.3033 10.9467C18.8968 9.54018 16.9891 8.75 15 8.75C13.0109 8.75 11.1032 9.54018 9.6967 10.9467C8.29018 12.3532 7.5 14.2609 7.5 16.25C7.5 18.2391 8.29018 20.1468 9.6967 21.5533C11.1032 22.9598 13.0109 23.75 15 23.75ZM15 21.25C13.6739 21.25 12.4021 20.7232 11.4645 19.7855C10.5268 18.8479 10 17.5761 10 16.25C10 14.9239 10.5268 13.6521 11.4645 12.7145C12.4021 11.7768 13.6739 11.25 15 11.25C16.3261 11.25 17.5979 11.7768 18.5355 12.7145C19.4732 13.6521 20 14.9239 20 16.25C20 17.5761 19.4732 18.8479 18.5355 19.7855C17.5979 20.7232 16.3261 21.25 15 21.25Z" fill="#C67E54"/>
</g>
<defs>
<clipPath id="clip0_1_6544">
<rect width="30" height="30" fill="white"/>
</clipPath>
</defs>
</svg>
