<svg width="20" height="20" viewBox="0 0 20 20" fill="none" xmlns="http://www.w3.org/2000/svg">
<path d="M7.71804 19.9999C7.13059 19.9999 6.56719 19.7423 6.1518 19.2837C5.73641 18.8251 5.50304 18.2031 5.50304 17.5546C5.50304 16.906 5.73641 16.284 6.1518 15.8254C6.56719 15.3668 7.13059 15.1092 7.71804 15.1092C8.3055 15.1092 8.86889 15.3668 9.28429 15.8254C9.69968 16.284 9.93305 16.906 9.93305 17.5546C9.93305 18.2031 9.69968 18.8251 9.28429 19.2837C8.86889 19.7423 8.3055 19.9999 7.71804 19.9999ZM15.4706 19.9999C14.8831 19.9999 14.3197 19.7423 13.9043 19.2837C13.4889 18.8251 13.2556 18.2031 13.2556 17.5546C13.2556 16.906 13.4889 16.284 13.9043 15.8254C14.3197 15.3668 14.8831 15.1092 15.4706 15.1092C16.058 15.1092 16.6214 15.3668 17.0368 15.8254C17.4522 16.284 17.6856 16.906 17.6856 17.5546C17.6856 18.2031 17.4522 18.8251 17.0368 19.2837C16.6214 19.7423 16.058 19.9999 15.4706 19.9999ZM1.03095 2.78823C0.754473 2.77838 0.492305 2.65021 0.299884 2.43082C0.107464 2.21142 -0.00012207 1.91801 -0.00012207 1.61262C-0.00012207 1.30723 0.107464 1.01382 0.299884 0.794423C0.492305 0.575029 0.754473 0.446857 1.03095 0.437012L2.30568 0.437012C3.30465 0.437012 4.1685 1.20241 4.38557 2.27837L5.77327 9.17674C5.99034 10.2527 6.85419 11.0181 7.85316 11.0181H16.1727L17.7697 3.96323H7.42013C7.14625 3.94943 6.88774 3.81961 6.69835 3.60076C6.50896 3.38192 6.40328 3.0909 6.40328 2.78823C6.40328 2.48556 6.50896 2.19454 6.69835 1.97569C6.88774 1.75685 7.14625 1.62703 7.42013 1.61323H17.7697C18.0935 1.61313 18.413 1.69451 18.704 1.85121C18.995 2.0079 19.2498 2.23578 19.449 2.51751C19.6483 2.79924 19.7867 3.12742 19.8538 3.47708C19.9209 3.82675 19.915 4.18871 19.8363 4.53544L18.2393 11.5879C18.1242 12.0967 17.8582 12.5485 17.4838 12.8713C17.1093 13.1941 16.6478 13.3694 16.1727 13.3693H7.85316C6.88387 13.3695 5.94352 13.0046 5.18742 12.3351C4.43131 11.6655 3.90468 10.7312 3.69449 9.6866L2.30568 2.78823H1.03095Z" fill="#181725"/>
</svg>
