<svg width="15" height="15" viewBox="0 0 15 15" fill="none" xmlns="http://www.w3.org/2000/svg">
<g clip-path="url(#clip0_1_7541)">
<path d="M4.375 3.75V1.875C4.375 1.70924 4.44085 1.55027 4.55806 1.43306C4.67527 1.31585 4.83424 1.25 5 1.25H10C10.1658 1.25 10.3247 1.31585 10.4419 1.43306C10.5592 1.55027 10.625 1.70924 10.625 1.875V3.75H13.75V5H12.5V13.125C12.5 13.2908 12.4342 13.4497 12.3169 13.5669C12.1997 13.6842 12.0408 13.75 11.875 13.75H3.125C2.95924 13.75 2.80027 13.6842 2.68306 13.5669C2.56585 13.4497 2.5 13.2908 2.5 13.125V5H1.25V3.75H4.375ZM5.625 2.5V3.75H9.375V2.5H5.625Z" fill="#BD6633"/>
</g>
<defs>
<clipPath id="clip0_1_7541">
<rect width="15" height="15" fill="white"/>
</clipPath>
</defs>
</svg>
