<svg width="24" height="24" viewBox="0 0 24 24" fill="none" xmlns="http://www.w3.org/2000/svg">
<path fill-rule="evenodd" clip-rule="evenodd" d="M19.2822 2C18.5292 2 17.8071 2.29912 17.2746 2.83156L8.63354 11.4727C8.51697 11.5892 8.43427 11.7353 8.39429 11.8952L7.4847 15.5336C7.40721 15.8436 7.49803 16.1715 7.72395 16.3974C7.94988 16.6233 8.27777 16.7141 8.58774 16.6366L12.2261 15.727C12.386 15.6871 12.5321 15.6044 12.6487 15.4878L21.2898 6.84668C21.8222 6.31424 22.1213 5.5921 22.1213 4.83912C22.1213 4.08614 21.8222 3.364 21.2898 2.83156C20.7573 2.29912 20.0352 2 19.2822 2ZM18.561 4.11791C18.7523 3.92664 19.0117 3.81918 19.2822 3.81918C19.5527 3.81918 19.8121 3.92664 20.0034 4.11791C20.1947 4.30919 20.3021 4.56862 20.3021 4.83912C20.3021 5.10963 20.1947 5.36905 20.0034 5.56033L11.5405 14.0233L9.61724 14.5041L10.098 12.5809L18.561 4.11791Z" fill="#404040"/>
<path d="M4.72877 3.92953C4.00505 3.92953 3.31098 4.21702 2.79924 4.72877C2.28749 5.24051 2 5.93458 2 6.6583V19.3926C2 20.1163 2.28749 20.8103 2.79924 21.3221C3.31098 21.8338 4.00505 22.1213 4.72877 22.1213H17.463C18.1867 22.1213 18.8808 21.8338 19.3926 21.3221C19.9043 20.8103 20.1918 20.1163 20.1918 19.3926V13.0254C20.1918 12.5231 19.7846 12.1158 19.2822 12.1158C18.7799 12.1158 18.3726 12.5231 18.3726 13.0254V19.3926C18.3726 19.6338 18.2768 19.8652 18.1062 20.0357C17.9356 20.2063 17.7043 20.3021 17.463 20.3021H4.72877C4.48753 20.3021 4.25617 20.2063 4.08559 20.0357C3.91501 19.8652 3.81918 19.6338 3.81918 19.3926V6.6583C3.81918 6.41706 3.91501 6.1857 4.08559 6.01512C4.25617 5.84454 4.48753 5.74871 4.72877 5.74871H11.0959C11.5983 5.74871 12.0055 5.34147 12.0055 4.83912C12.0055 4.33677 11.5983 3.92953 11.0959 3.92953H4.72877Z" fill="#404040"/>
</svg>
