<svg width="20" height="21" viewBox="0 0 20 21" fill="none" xmlns="http://www.w3.org/2000/svg">
<g clip-path="url(#clip0_1_6320)">
<path d="M10 13.8334C11.841 13.8334 13.3333 12.341 13.3333 10.5001C13.3333 8.65913 11.841 7.16675 10 7.16675C8.15905 7.16675 6.66667 8.65913 6.66667 10.5001C6.66667 12.341 8.15905 13.8334 10 13.8334Z" fill="#9E9E9E"/>
<path d="M19.3925 8.34907C18.1 6.24407 15.16 2.7124 10 2.7124C4.84 2.7124 1.9 6.24407 0.607501 8.34907C0.207941 8.99532 -0.00370407 9.7401 -0.00370407 10.4999C-0.00370407 11.2597 0.207941 12.0045 0.607501 12.6507C1.9 14.7557 4.84 18.2874 10 18.2874C15.16 18.2874 18.1 14.7557 19.3925 12.6507C19.7921 12.0045 20.0037 11.2597 20.0037 10.4999C20.0037 9.7401 19.7921 8.99532 19.3925 8.34907ZM10 15.4999C9.01109 15.4999 8.0444 15.2067 7.22215 14.6573C6.3999 14.1078 5.75904 13.327 5.3806 12.4133C5.00216 11.4997 4.90315 10.4944 5.09607 9.52445C5.289 8.55455 5.7652 7.66363 6.46447 6.96437C7.16373 6.26511 8.05464 5.7889 9.02455 5.59598C9.99445 5.40305 10.9998 5.50207 11.9134 5.8805C12.827 6.25894 13.6079 6.89981 14.1573 7.72205C14.7068 8.5443 15 9.511 15 10.4999C14.9987 11.8256 14.4715 13.0966 13.5341 14.034C12.5967 14.9714 11.3257 15.4986 10 15.4999Z" fill="#9E9E9E"/>
</g>
<defs>
<clipPath id="clip0_1_6320">
<rect width="20" height="20" fill="white" transform="translate(0 0.5)"/>
</clipPath>
</defs>
</svg>
