<svg width="16" height="17" viewBox="0 0 16 17" fill="none" xmlns="http://www.w3.org/2000/svg">
<path d="M14.537 7.19425H14V7.16658H7.99999V9.83325H11.7677C11.218 11.3856 9.74099 12.4999 7.99999 12.4999C5.79099 12.4999 3.99999 10.7089 3.99999 8.49992C3.99999 6.29092 5.79099 4.49992 7.99999 4.49992C9.01966 4.49992 9.94733 4.88458 10.6537 5.51292L12.5393 3.62725C11.3487 2.51759 9.75599 1.83325 7.99999 1.83325C4.31833 1.83325 1.33333 4.81825 1.33333 8.49992C1.33333 12.1816 4.31833 15.1666 7.99999 15.1666C11.6817 15.1666 14.6667 12.1816 14.6667 8.49992C14.6667 8.05292 14.6207 7.61658 14.537 7.19425Z" fill="#FFC107"/>
<path d="M2.10201 5.39692L4.29234 7.00325C4.885 5.53592 6.32034 4.49992 8.00001 4.49992C9.01967 4.49992 9.94734 4.88459 10.6537 5.51292L12.5393 3.62725C11.3487 2.51759 9.75601 1.83325 8.00001 1.83325C5.43934 1.83325 3.21867 3.27892 2.10201 5.39692Z" fill="#FF3D00"/>
<path d="M8 15.1667C9.722 15.1667 11.2867 14.5077 12.4697 13.436L10.4063 11.69C9.71452 12.2161 8.86915 12.5007 8 12.5C6.266 12.5 4.79367 11.3943 4.239 9.85132L2.065 11.5263C3.16834 13.6853 5.409 15.1667 8 15.1667Z" fill="#4CAF50"/>
<path d="M14.537 7.19441H14V7.16675H8V9.83341H11.7677C11.5047 10.5722 11.0311 11.2178 10.4053 11.6904L10.4063 11.6897L12.4697 13.4357C12.3237 13.5684 14.6667 11.8334 14.6667 8.50008C14.6667 8.05308 14.6207 7.61675 14.537 7.19441Z" fill="#1976D2"/>
</svg>
