<svg width="39" height="39" viewBox="0 0 39 39" fill="none" xmlns="http://www.w3.org/2000/svg">
<g clip-path="url(#clip0_1_7407)">
<path d="M19.0404 8.58462L19.5 9.04424L19.9596 8.58462C21.5067 7.0375 24.016 5.525 26.8125 5.525C31.3509 5.525 35.1 9.2558 35.1 14.625C35.1 20.0611 32.1912 24.3706 28.7025 27.6599C25.6102 30.5755 22.1268 32.6307 19.9431 33.919C19.7887 34.0101 19.6408 34.0974 19.5 34.1809C19.3592 34.0974 19.2113 34.0101 19.0569 33.919C16.8732 32.6307 13.3898 30.5755 10.2975 27.6599C6.80883 24.3706 3.9 20.0611 3.9 14.625C3.9 9.2588 7.70805 5.525 12.1875 5.525C14.984 5.525 17.4933 7.0375 19.0404 8.58462Z" stroke="#A3450F" stroke-width="1.3"/>
</g>
<defs>
<clipPath id="clip0_1_7407">
<rect width="39" height="39" fill="white"/>
</clipPath>
</defs>
</svg>
