<svg width="13" height="14" viewBox="0 0 13 14" fill="none" xmlns="http://www.w3.org/2000/svg">
<g clip-path="url(#clip0_1_7461)">
<path d="M6.50001 1.45825C9.49164 1.45825 11.9167 3.88329 11.9167 6.87492C11.9167 9.86654 9.49164 12.2916 6.50001 12.2916C3.50839 12.2916 1.08334 9.86654 1.08334 6.87492H2.16668C2.16668 9.268 4.10693 11.2083 6.50001 11.2083C8.89309 11.2083 10.8333 9.268 10.8333 6.87492C10.8333 4.48184 8.89309 2.54159 6.50001 2.54159C5.01043 2.54159 3.69634 3.29288 2.91689 4.43742H4.33334V5.52075H1.08334V2.27075H2.16668V3.62492C3.15468 2.30867 4.72822 1.45825 6.50001 1.45825ZM7.04168 4.16659V6.65013L8.7983 8.40675L8.03184 9.17321L5.95834 7.09863V4.16659H7.04168Z" fill="#AD4A12"/>
</g>
<defs>
<clipPath id="clip0_1_7461">
<rect width="13" height="13" fill="white" transform="translate(0 0.375)"/>
</clipPath>
</defs>
</svg>
