<svg width="26" height="26" viewBox="0 0 26 26" fill="none" xmlns="http://www.w3.org/2000/svg">
<g clip-path="url(#clip0_1_7085)">
<path d="M5.29069 12.1402L7.40695 10.0239L13.2267 15.8436L16.9301 12.1402L20.1045 15.3146V5.68559H5.29069V12.1402ZM4.23257 3.56934H21.1626C21.4432 3.56934 21.7124 3.68082 21.9108 3.87925C22.1093 4.07769 22.2207 4.34683 22.2207 4.62746V21.5575C22.2207 21.8381 22.1093 22.1073 21.9108 22.3057C21.7124 22.5042 21.4432 22.6156 21.1626 22.6156H4.23257C3.95193 22.6156 3.68279 22.5042 3.48436 22.3057C3.28592 22.1073 3.17444 21.8381 3.17444 21.5575V4.62746C3.17444 4.34683 3.28592 4.07769 3.48436 3.87925C3.68279 3.68082 3.95193 3.56934 4.23257 3.56934ZM16.401 10.9762C15.9801 10.9762 15.5764 10.809 15.2787 10.5114C14.9811 10.2137 14.8138 9.80999 14.8138 9.38904C14.8138 8.96809 14.9811 8.56438 15.2787 8.26672C15.5764 7.96907 15.9801 7.80185 16.401 7.80185C16.822 7.80185 17.2257 7.96907 17.5233 8.26672C17.821 8.56438 17.9882 8.96809 17.9882 9.38904C17.9882 9.80999 17.821 10.2137 17.5233 10.5114C17.2257 10.809 16.822 10.9762 16.401 10.9762Z" fill="#161616"/>
</g>
<defs>
<clipPath id="clip0_1_7085">
<rect width="25.3951" height="25.3951" fill="white" transform="translate(0 0.39502)"/>
</clipPath>
</defs>
</svg>
