<svg width="24" height="25" viewBox="0 0 24 25" fill="none" xmlns="http://www.w3.org/2000/svg">
<path fill-rule="evenodd" clip-rule="evenodd" d="M6.54545 10.6818V7.95455C6.54545 6.50791 7.12013 5.12053 8.14305 4.0976C9.16598 3.07467 10.5534 2.5 12 2.5C13.4466 2.5 14.834 3.07467 15.8569 4.0976C16.8799 5.12053 17.4545 6.50791 17.4545 7.95455V10.6818H18.3636C19.8699 10.6818 21.0909 11.9029 21.0909 13.4091V19.7727C21.0909 21.279 19.8699 22.5 18.3636 22.5H5.63636C4.13013 22.5 2.90909 21.279 2.90909 19.7727V13.4091C2.90909 11.9029 4.13013 10.6818 5.63636 10.6818H6.54545ZM9.4287 5.38325C10.1107 4.7013 11.0356 4.31818 12 4.31818C12.9644 4.31818 13.8893 4.7013 14.5713 5.38325C15.2532 6.0652 15.6364 6.99012 15.6364 7.95455V10.6818H8.36363V7.95455C8.36363 6.99012 8.74675 6.0652 9.4287 5.38325ZM5.63636 12.5C5.13428 12.5 4.72727 12.907 4.72727 13.4091V19.7727C4.72727 20.2748 5.13428 20.6818 5.63636 20.6818H18.3636C18.8657 20.6818 19.2727 20.2748 19.2727 19.7727V13.4091C19.2727 12.907 18.8657 12.5 18.3636 12.5H5.63636Z" fill="#757575"/>
</svg>
