<svg width="24" height="25" viewBox="0 0 24 25" fill="none" xmlns="http://www.w3.org/2000/svg">
<path fill-rule="evenodd" clip-rule="evenodd" d="M2.00005 7.02961C1.9999 7.03858 1.99988 7.04755 2 7.05651V17.9544C2 19.4565 3.22519 20.6817 4.72726 20.6817H19.2727C20.7747 20.6817 21.9999 19.4565 21.9999 17.9544V7.05662C22 7.04757 22 7.03853 21.9999 7.02948C21.9913 5.53467 20.7694 4.31812 19.2727 4.31812H4.72726C3.23045 4.31812 2.00858 5.53474 2.00005 7.02961ZM3.91506 6.63988C4.06541 6.34258 4.37457 6.13629 4.72726 6.13629H19.2727C19.6253 6.13629 19.9345 6.34258 20.0849 6.63988L12 12.2993L3.91506 6.63988ZM20.1817 8.79142V17.9544C20.1817 18.4523 19.7706 18.8635 19.2727 18.8635H4.72726C4.22934 18.8635 3.81818 18.4523 3.81818 17.9544V8.79142L11.4786 14.1537C11.7916 14.3728 12.2083 14.3728 12.5213 14.1537L20.1817 8.79142Z" fill="#757575"/>
</svg>
