<svg width="26" height="26" viewBox="0 0 26 26" fill="none" xmlns="http://www.w3.org/2000/svg">
<path d="M9.4 1H2.2C1.88174 1 1.57652 1.12643 1.35147 1.35147C1.12643 1.57652 1 1.88174 1 2.2V9.4C1 9.71826 1.12643 10.0235 1.35147 10.2485C1.57652 10.4736 1.88174 10.6 2.2 10.6H9.4C9.71826 10.6 10.0235 10.4736 10.2485 10.2485C10.4736 10.0235 10.6 9.71826 10.6 9.4V2.2C10.6 1.88174 10.4736 1.57652 10.2485 1.35147C10.0235 1.12643 9.71826 1 9.4 1ZM9.4 15.4H2.2C1.88174 15.4 1.57652 15.5264 1.35147 15.7515C1.12643 15.9765 1 16.2817 1 16.6V23.8C1 24.1183 1.12643 24.4235 1.35147 24.6485C1.57652 24.8736 1.88174 25 2.2 25H9.4C9.71826 25 10.0235 24.8736 10.2485 24.6485C10.4736 24.4235 10.6 24.1183 10.6 23.8V16.6C10.6 16.2817 10.4736 15.9765 10.2485 15.7515C10.0235 15.5264 9.71826 15.4 9.4 15.4ZM23.8 1H16.6C16.2817 1 15.9765 1.12643 15.7515 1.35147C15.5264 1.57652 15.4 1.88174 15.4 2.2V9.4C15.4 9.71826 15.5264 10.0235 15.7515 10.2485C15.9765 10.4736 16.2817 10.6 16.6 10.6H23.8C24.1183 10.6 24.4235 10.4736 24.6485 10.2485C24.8736 10.0235 25 9.71826 25 9.4V2.2C25 1.88174 24.8736 1.57652 24.6485 1.35147C24.4235 1.12643 24.1183 1 23.8 1Z" stroke="#BA6534" stroke-linejoin="round"/>
<path d="M15.3999 15.4H24.9999M20.1999 20.2H24.9999M15.3999 25H24.9999" stroke="#BA6534" stroke-linecap="round" stroke-linejoin="round"/>
</svg>
