<svg width="13" height="14" viewBox="0 0 13 14" fill="none" xmlns="http://www.w3.org/2000/svg">
<g clip-path="url(#clip0_1_7467)">
<path d="M5.90414 1.26245L11.2661 2.02891L12.032 7.39141L7.05302 12.3704C6.95144 12.472 6.81369 12.529 6.67006 12.529C6.52643 12.529 6.38868 12.472 6.2871 12.3704L0.924599 7.00791C0.823052 6.90633 0.766006 6.76858 0.766006 6.62495C0.766006 6.48132 0.823052 6.34357 0.924599 6.24199L5.90414 1.26245ZM6.2871 2.41187L2.07347 6.62495L6.67006 11.221L10.8831 7.00791L10.309 2.98603L6.2871 2.41187ZM7.43543 5.85903C7.23223 5.65576 7.1181 5.38008 7.11815 5.09266C7.11817 4.95034 7.14623 4.80942 7.20072 4.67794C7.2552 4.54646 7.33505 4.42701 7.4357 4.32639C7.53636 4.22577 7.65584 4.14596 7.78734 4.09152C7.91883 4.03708 8.05976 4.00908 8.20208 4.0091C8.48951 4.00915 8.76514 4.12338 8.96835 4.32666C9.17156 4.52994 9.28569 4.80561 9.28564 5.09304C9.28559 5.38047 9.17136 5.6561 8.96808 5.85931C8.7648 6.06251 8.48913 6.17664 8.2017 6.17659C7.91427 6.17654 7.63864 6.06231 7.43543 5.85903Z" fill="#AD4A12"/>
</g>
<defs>
<clipPath id="clip0_1_7467">
<rect width="13" height="13" fill="white" transform="translate(0 0.124756)"/>
</clipPath>
</defs>
</svg>
