<svg width="29" height="28" viewBox="0 0 29 28" fill="none" xmlns="http://www.w3.org/2000/svg">
<path fill-rule="evenodd" clip-rule="evenodd" d="M13.8591 25.2723C9.53934 25.2723 5.8504 24.602 5.8504 21.9178C5.8504 19.2335 9.51594 16.7556 13.8591 16.7556C18.1788 16.7556 21.8677 19.2095 21.8677 21.8938C21.8677 24.5769 18.2022 25.2723 13.8591 25.2723Z" stroke="#424242" stroke-width="1.5" stroke-linecap="round" stroke-linejoin="round"/>
<path fill-rule="evenodd" clip-rule="evenodd" d="M13.8506 13.036C16.6854 13.036 18.983 10.745 18.983 7.91853C18.983 5.09202 16.6854 2.80005 13.8506 2.80005C11.0158 2.80005 8.71713 5.09202 8.71713 7.91853C8.70756 10.7355 10.9892 13.0264 13.8144 13.036C13.8272 13.036 13.8389 13.036 13.8506 13.036Z" stroke="#424242" stroke-width="1.5" stroke-linecap="round" stroke-linejoin="round"/>
</svg>
