<svg width="26" height="27" viewBox="0 0 26 27" fill="none" xmlns="http://www.w3.org/2000/svg">
<g clip-path="url(#clip0_1_7090)">
<path d="M22.2206 16.6619V21.9599C22.2204 22.2385 22.1096 22.5056 21.9126 22.7026C21.7156 22.8996 21.4485 23.0104 21.1699 23.0107H4.22506C3.94648 23.0104 3.67938 22.8996 3.4824 22.7026C3.28541 22.5056 3.17462 22.2385 3.17434 21.9599V16.6619H22.2206ZM2.11621 12.4294H23.2788V14.5456H2.11621V12.4294ZM22.2206 10.3131H3.17434V5.01508C3.17434 4.43522 3.64521 3.96436 4.22506 3.96436H21.1699C21.7498 3.96436 22.2206 4.43522 22.2206 5.01508V10.3131Z" fill="#161616"/>
</g>
<defs>
<clipPath id="clip0_1_7090">
<rect width="25.3951" height="25.3951" fill="white" transform="translate(0 0.790039)"/>
</clipPath>
</defs>
</svg>
