<svg width="24" height="24" viewBox="0 0 24 24" fill="none" xmlns="http://www.w3.org/2000/svg">
<path d="M12.6089 12.0089L12.6177 12L12.6089 11.9912L8.70889 8.09121C8.52813 7.91045 8.43755 7.68041 8.43755 7.40005C8.43755 7.11969 8.52813 6.88965 8.70889 6.70889C8.88965 6.52813 9.11969 6.43755 9.40005 6.43755C9.68041 6.43755 9.91045 6.52813 10.0912 6.70889L14.6912 11.3089C14.7901 11.4078 14.8598 11.5146 14.9008 11.6293C14.9419 11.7445 14.9625 11.868 14.9625 12C14.9625 12.1321 14.9419 12.2556 14.9008 12.3708C14.8598 12.4855 14.7901 12.5923 14.6912 12.6912L10.0912 17.2912C9.91045 17.472 9.68041 17.5625 9.40005 17.5625C9.11969 17.5625 8.88965 17.472 8.70889 17.2912C8.52813 17.1104 8.43755 16.8804 8.43755 16.6C8.43755 16.3197 8.52813 16.0896 8.70889 15.9089L12.6089 12.0089Z" fill="#404040" stroke="#404040" stroke-width="0.025"/>
</svg>
