<svg width="30" height="30" viewBox="0 0 30 30" fill="none" xmlns="http://www.w3.org/2000/svg">
<path d="M15 30C23.2843 30 30 23.2843 30 15C30 6.71573 23.2843 0 15 0C6.71573 0 0 6.71573 0 15C0 23.2843 6.71573 30 15 30Z" fill="#FFEBEB"/>
<path d="M24.0778 13.5637L17.601 8.19197C17.523 8.12686 17.4495 8.09023 17.344 8.0943C17.142 8.10244 16.8849 8.22859 16.8849 8.41986V11.1139C16.8849 11.1952 16.8115 11.2685 16.7197 11.2807C10.2796 12.1556 7.5668 16.4286 6.60745 20.8643C6.57073 21.0393 6.83696 21.2021 6.9609 21.0637C9.31109 18.4389 12.1708 16.7257 16.6922 16.6931C16.7931 16.6931 16.8849 16.7989 16.8849 16.8885V19.5336C16.8849 19.8185 17.3118 19.9446 17.5505 19.7493L24.0732 14.284C24.1926 14.1863 24.2293 14.0724 24.2339 13.9421C24.2293 13.8119 24.1926 13.6614 24.0778 13.5637Z" fill="#B5A2A2"/>
</svg>
