<svg width="13" height="13" viewBox="0 0 13 13" fill="none" xmlns="http://www.w3.org/2000/svg">
<g clip-path="url(#clip0_1_7458)">
<path d="M6.50003 0.541626L10.9509 1.53071C11.1984 1.58596 11.375 1.80533 11.375 2.05938V7.469C11.375 8.55558 10.8317 9.57067 9.9277 10.173L6.50003 12.4583L3.07236 10.173C2.16778 9.57013 1.62503 8.55558 1.62503 7.46954V2.05938C1.62503 1.80533 1.80161 1.58596 2.04916 1.53071L6.50003 0.541626ZM6.50003 1.6515L2.70836 2.49379V7.469C2.70836 8.19321 3.0702 8.86975 3.67307 9.27167L6.50003 11.1567L9.32699 9.27167C9.92986 8.86975 10.2917 8.19375 10.2917 7.46954V2.49379L6.50003 1.65204V1.6515ZM8.91153 4.45354L9.67799 5.21946L6.23082 8.66663L3.93253 6.36833L4.69845 5.60242L6.23028 7.13425L8.91153 4.453V4.45354Z" fill="#AD4A12"/>
</g>
<defs>
<clipPath id="clip0_1_7458">
<rect width="13" height="13" fill="white"/>
</clipPath>
</defs>
</svg>
