<svg width="34" height="34" viewBox="0 0 34 34" fill="none" xmlns="http://www.w3.org/2000/svg">
<circle cx="17" cy="17" r="17" fill="white"/>
<g clip-path="url(#clip0_1_7391)">
<path d="M16.5 5.95825C17.1293 5.95825 17.7523 6.08219 18.3337 6.323C18.915 6.5638 19.4433 6.91675 19.8882 7.3617C20.3332 7.80665 20.6861 8.33488 20.9269 8.91623C21.1677 9.49758 21.2917 10.1207 21.2917 10.7499V12.6666H24.1667C24.4208 12.6666 24.6646 12.7676 24.8443 12.9473C25.024 13.127 25.125 13.3708 25.125 13.6249V25.1249C25.125 25.3791 25.024 25.6228 24.8443 25.8026C24.6646 25.9823 24.4208 26.0833 24.1667 26.0833H8.83333C8.57917 26.0833 8.33541 25.9823 8.15569 25.8026C7.97597 25.6228 7.875 25.3791 7.875 25.1249V13.6249C7.875 13.3708 7.97597 13.127 8.15569 12.9473C8.33541 12.7676 8.57917 12.6666 8.83333 12.6666H11.7083V10.7499C11.7083 9.47909 12.2132 8.26031 13.1118 7.3617C14.0104 6.46309 15.2292 5.95825 16.5 5.95825ZM21.2917 15.5416H19.375V16.4999C19.3753 16.7442 19.4688 16.9791 19.6365 17.1567C19.8042 17.3343 20.0333 17.4412 20.2772 17.4555C20.521 17.4699 20.7611 17.3905 20.9484 17.2337C21.1357 17.077 21.2561 16.8546 21.285 16.612L21.2917 16.4999V15.5416ZM13.625 15.5416H11.7083V16.4999C11.7086 16.7442 11.8021 16.9791 11.9698 17.1567C12.1375 17.3343 12.3667 17.4412 12.6105 17.4555C12.8543 17.4699 13.0944 17.3905 13.2818 17.2337C13.4691 17.077 13.5894 16.8546 13.6183 16.612L13.625 16.4999V15.5416ZM16.5 7.87492C15.7667 7.87488 15.061 8.15506 14.5275 8.65815C13.994 9.16123 13.6728 9.84919 13.6298 10.5813L13.625 10.7499V12.6666H19.375V10.7499C19.375 10.0166 19.0949 9.31097 18.5918 8.77742C18.0887 8.24387 17.4007 7.92273 16.6687 7.87971L16.5 7.87492Z" fill="#B3571F"/>
</g>
<defs>
<clipPath id="clip0_1_7391">
<rect width="23" height="23" fill="white" transform="translate(5 5)"/>
</clipPath>
</defs>
</svg>
