<svg width="24" height="24" viewBox="0 0 24 24" fill="none" xmlns="http://www.w3.org/2000/svg">
<path d="M9 9.236C9.53 9.711 10.232 10 11 10H13C13.7381 10.001 14.4505 9.72888 15 9.236H9ZM9 9.236C8.45054 9.72888 7.73814 10.001 7 10L9 9.236ZM8.05 4V3.95H8H5C4.72153 3.95 4.45445 4.06062 4.25754 4.25754C4.06063 4.45445 3.95 4.72152 3.95 5V7C3.95 7.27848 4.06063 7.54555 4.25754 7.74246C4.45445 7.93937 4.72153 8.05 5 8.05H7C7.27848 8.05 7.54555 7.93937 7.74247 7.74246C7.93938 7.54555 8.05 7.27848 8.05 7V4ZM5.01 9.95H4.96V10V19.965V20.015H5.01H7H7.05V19.965V15C7.05 14.4828 7.25545 13.9868 7.62114 13.6211C7.98684 13.2554 8.48283 13.05 9 13.05H11C11.5172 13.05 12.0132 13.2554 12.3789 13.6211C12.7446 13.9868 12.95 14.4828 12.95 15V19.965V20.015H13H19.013H19.063V19.965V10V9.95H19.013H17C16.2448 9.95 15.5545 9.66585 15.0334 9.19877L15 9.16884L14.9666 9.19878C14.4263 9.68342 13.7259 9.951 13.0001 9.95H13H11C10.2448 9.95 9.55454 9.66585 9.03337 9.19877L8.99999 9.16884L8.96662 9.19878C8.42634 9.68342 7.72586 9.951 7.00007 9.95H7H5.01ZM3.00817 9.17712C2.71173 8.90635 2.4737 8.57766 2.3089 8.21118C2.13767 7.83041 2.04942 7.41757 2.05 7.00007V7V5C2.05 4.21761 2.36081 3.46727 2.91404 2.91403C3.46727 2.3608 4.21761 2.05 5 2.05H19C19.7824 2.05 20.5327 2.3608 21.086 2.91403C21.6392 3.46727 21.95 4.21761 21.95 5V7C21.95 7.86733 21.5764 8.64803 20.9795 9.18792L20.963 9.20281V9.225V19.965C20.963 20.4822 20.7576 20.9782 20.3919 21.3439C20.0262 21.7096 19.5302 21.915 19.013 21.915H11.373V21.9141L11.3637 21.9159C11.2438 21.9385 11.122 21.95 11 21.95H9C8.87798 21.95 8.75621 21.9385 8.63629 21.9159L8.63646 21.915H8.627H5.011C4.49383 21.915 3.99784 21.7096 3.63214 21.3439C3.26645 20.9782 3.061 20.4822 3.061 19.965V9.245V9.1243L3.00817 9.17712ZM11.05 15V14.95H11H9H8.95V15V19.965V20.015H9H11V19.966H11.05V19.965V19.915V15ZM14.05 4V3.95H14H10H9.95V4V7C9.95 7.27848 10.0606 7.54555 10.2575 7.74246C10.4545 7.93937 10.7215 8.05 11 8.05H13C13.2785 8.05 13.5456 7.93937 13.7425 7.74246C13.9394 7.54555 14.05 7.27848 14.05 7V4ZM16 3.95H15.95V4V7C15.95 7.27848 16.0606 7.54555 16.2575 7.74246C16.4545 7.93937 16.7215 8.05 17 8.05H19C19.2785 8.05 19.5456 7.93937 19.7425 7.74246C19.9394 7.54555 20.05 7.27848 20.05 7V5C20.05 4.72152 19.9394 4.45445 19.7425 4.25754C19.5456 4.06062 19.2785 3.95 19 3.95H16ZM16 13.05H17C17.252 13.05 17.4936 13.1501 17.6718 13.3282C17.8499 13.5064 17.95 13.748 17.95 14V17C17.95 17.252 17.8499 17.4936 17.6718 17.6718C17.4936 17.8499 17.252 17.95 17 17.95H16C15.748 17.95 15.5064 17.8499 15.3283 17.6718C15.1501 17.4936 15.05 17.252 15.05 17V14C15.05 13.748 15.1501 13.5064 15.3283 13.3282C15.5064 13.1501 15.748 13.05 16 13.05Z" fill="#BD6633" stroke="#F5F5F5" stroke-width="0.1"/>
</svg>
