<svg width="24" height="24" viewBox="0 0 24 24" fill="none" xmlns="http://www.w3.org/2000/svg">
<path d="M8.02982 12.0194C8.17064 11.9672 8.32209 11.94 8.4752 11.9395C8.62831 11.9391 8.77997 11.9653 8.92123 12.0166C9.06249 12.068 9.19047 12.1434 9.29762 12.2385C9.40476 12.3336 9.48888 12.4464 9.54502 12.5702C9.60116 12.6941 9.62817 12.8264 9.62445 12.9595C9.62073 13.0926 9.58637 13.2236 9.52338 13.345C9.4604 13.4663 9.37008 13.5754 9.25775 13.6659C9.14543 13.7563 9.01339 13.8263 8.86943 13.8716C8.10375 14.1339 7.44659 14.5904 6.98346 15.1819C6.52033 15.7733 6.27267 16.4722 6.2727 17.1877V18.9204C6.2727 19.1845 6.39338 19.4377 6.6082 19.6245C6.82301 19.8112 7.11436 19.9162 7.41815 19.9162H16.5817C16.8855 19.9162 17.1769 19.8112 17.3917 19.6245C17.6065 19.4377 17.7272 19.1845 17.7272 18.9204V17.2803C17.7273 16.5418 17.4693 15.8208 16.9873 15.2128C16.5054 14.6048 15.8222 14.1384 15.0285 13.8756C14.8836 13.8319 14.7503 13.7634 14.6365 13.674C14.5227 13.5847 14.4307 13.4765 14.3659 13.3557C14.3011 13.2348 14.2648 13.104 14.2593 12.9707C14.2538 12.8375 14.2791 12.7047 14.3337 12.5802C14.3883 12.4556 14.4711 12.3418 14.5772 12.2456C14.6833 12.1494 14.8106 12.0727 14.9515 12.02C15.0923 11.9674 15.2439 11.9398 15.3972 11.939C15.5505 11.9382 15.7025 11.9642 15.844 12.0154C17.0715 12.4219 18.1279 13.143 18.8733 14.0832C19.6188 15.0234 20.018 16.1384 20.018 17.2803V18.9204C20.018 19.7127 19.656 20.4725 19.0116 21.0328C18.3671 21.593 17.4931 21.9078 16.5817 21.9078H7.41815C6.50678 21.9078 5.63273 21.593 4.98829 21.0328C4.34385 20.4725 3.98181 19.7127 3.98181 18.9204L3.98181 17.1877C3.98197 16.0725 4.36814 14.9832 5.0901 14.0615C5.81206 13.1397 6.83638 12.4282 8.02982 12.0194ZM11.9999 1.99164C13.2151 1.99164 14.3805 2.4113 15.2397 3.1583C16.099 3.9053 16.5817 4.91845 16.5817 5.97487V7.96648C16.5817 9.0229 16.099 10.036 15.2397 10.783C14.3805 11.53 13.2151 11.9497 11.9999 11.9497C10.7848 11.9497 9.61937 11.53 8.76012 10.783C7.90087 10.036 7.41815 9.0229 7.41815 7.96648V5.97487C7.41815 4.91845 7.90087 3.9053 8.76012 3.1583C9.61937 2.4113 10.7848 1.99164 11.9999 1.99164ZM11.9999 3.98325C11.3923 3.98325 10.8097 4.19308 10.38 4.56658C9.9504 4.94008 9.70904 5.44666 9.70904 5.97487V7.96648C9.70904 8.49469 9.9504 9.00126 10.38 9.37476C10.8097 9.74826 11.3923 9.95809 11.9999 9.95809C12.6075 9.95809 13.1902 9.74826 13.6198 9.37476C14.0495 9.00126 14.2908 8.49469 14.2908 7.96648V5.97487C14.2908 5.44666 14.0495 4.94008 13.6198 4.56658C13.1902 4.19308 12.6075 3.98325 11.9999 3.98325Z" fill="#181725"/>
</svg>
