<svg width="13" height="14" viewBox="0 0 13 14" fill="none" xmlns="http://www.w3.org/2000/svg">
<g clip-path="url(#clip0_1_7464)">
<path d="M9.75001 4.54154H11.375C11.5187 4.54154 11.6564 4.59861 11.758 4.7002C11.8596 4.80178 11.9167 4.93955 11.9167 5.08321V11.5832C11.9167 11.7269 11.8596 11.8646 11.758 11.9662C11.6564 12.0678 11.5187 12.1249 11.375 12.1249H1.62501C1.48135 12.1249 1.34358 12.0678 1.24199 11.9662C1.14041 11.8646 1.08334 11.7269 1.08334 11.5832V2.91654C1.08334 2.77289 1.14041 2.63511 1.24199 2.53353C1.34358 2.43195 1.48135 2.37488 1.62501 2.37488H9.75001V4.54154ZM2.16668 5.62488V11.0415H10.8333V5.62488H2.16668ZM2.16668 3.45821V4.54154H8.66668V3.45821H2.16668ZM8.12501 7.79154H9.75001V8.87488H8.12501V7.79154Z" fill="#AD4A12"/>
</g>
<defs>
<clipPath id="clip0_1_7464">
<rect width="13" height="13" fill="white" transform="translate(0 0.75)"/>
</clipPath>
</defs>
</svg>
